<svg xmlns="http://www.w3.org/2000/svg" xmlns:xlink="http://www.w3.org/1999/xlink" width="793" zoomAndPan="magnify" viewBox="0 0 595.5 842.249979" height="1122" preserveAspectRatio="xMidYMid meet" version="1.0"><path fill="#f2af1b" d="M 70.199219 305.378906 C 70.199219 305.378906 65.21875 350.132812 84.777344 413.800781 C 113.84375 508.8125 202.285156 573.636719 229.132812 594.949219 C 255.976562 616.257812 363.441406 656.394531 445.128906 594.949219 C 526.820312 533.5 530.195312 447.367188 485.398438 352.351562 C 440.597656 257.339844 338.820312 219.335938 227.976562 202.550781 C 117.132812 185.769531 73.574219 256.183594 70.199219 305.378906 Z M 229.664062 208.765625 C 337.574219 225.015625 436.6875 261.957031 480.332031 354.128906 C 523.972656 446.300781 520.597656 529.949219 441.042969 589.621094 C 361.484375 649.292969 256.953125 610.222656 230.730469 589.621094 C 204.507812 569.019531 118.554688 506.0625 90.199219 413.800781 C 71.265625 351.996094 76.066406 308.574219 76.066406 308.574219 C 79.355469 260.890625 121.84375 192.515625 229.664062 208.765625 Z M 229.664062 208.765625 " fill-opacity="1" fill-rule="nonzero"/></svg>